<svg width="148" height="148" viewBox="0 0 148 148" fill="none" xmlns="http://www.w3.org/2000/svg">
<path d="M147.483 74.7518C147.07 115.343 113.829 147.917 73.2379 147.503C32.6519 147.089 0.077884 113.853 0.49163 73.2623C0.905376 32.6713 34.1414 0.0973524 74.7323 0.511098C115.323 0.924845 147.897 34.1608 147.483 74.7518Z" fill="white"/>
<path d="M140.742 74.6836L137.286 82.3501L138.658 90.6445L133.46 97.2547L132.793 105.637L126.163 110.806L123.506 118.784L115.834 122.221L111.356 129.337L103.081 130.846L97.0308 136.682L88.639 136.157L81.362 140.367L73.3402 137.841L65.2697 140.202L58.0754 135.845L49.6739 136.2L43.7403 130.242L35.5043 128.568L31.1721 121.359L23.5689 117.767L21.0767 109.735L14.5493 104.434L14.0528 96.0426L8.99533 89.3254L10.5335 81.0602L7.23326 73.3304L10.6893 65.6639L9.31659 57.3696L14.5152 50.7594L15.1821 42.3773L21.8117 37.2079L24.4694 29.2299L32.1408 25.7934L36.619 18.677L44.8939 17.168L50.9443 11.3318L59.3361 11.8575L66.6131 7.647L74.6349 10.1733L82.7054 7.8125L89.8997 12.169L98.3012 11.8137L104.235 17.7716L112.471 19.4461L116.803 26.655L124.406 30.2473L126.898 38.2788L133.426 43.5796L133.922 51.9714L138.98 58.6887L137.442 66.9539L140.742 74.6836Z" stroke="#BD6363" stroke-width="7" stroke-miterlimit="10"/>
<path d="M136.351 74.6398L132.934 81.7757L134.404 89.5492L129.371 95.6581L128.923 103.558L122.571 108.275L120.249 115.839L112.953 118.906L108.898 125.696L101.081 126.937L95.5169 132.559L87.6314 131.883L80.8752 136.001L73.384 133.45L65.8392 135.85L59.1706 131.596L51.2753 132.112L45.8236 126.373L38.0354 124.976L34.117 118.103L26.8838 114.89L24.7177 107.282L18.4579 102.434L18.1756 94.5288L13.2691 88.3177L14.8997 80.5783L11.6238 73.3742L15.0409 66.2383L13.5709 58.4647L18.604 52.3559L19.0518 44.4558L25.404 39.7391L27.7259 32.1748L35.0224 29.1083L39.0771 22.3179L46.8945 21.0767L52.4581 15.4546L60.3436 16.1312L67.0999 12.0132L74.5911 14.5639L82.1359 12.1641L88.8045 16.4184L96.6998 15.9025L102.151 21.6414L109.94 23.0384L113.858 29.9114L121.091 33.124L123.257 40.737L129.517 45.5802L129.799 53.4852L134.706 59.6963L133.075 67.4357L136.351 74.6398Z" stroke="#CFDE7C" stroke-width="3" stroke-miterlimit="10"/>
<path d="M43.8376 70.2492H46.8263V90.9122H56.727V93.4239H43.8376V70.2492Z" fill="#9C9C42"/>
<path d="M74.5424 84.964C74.5424 91.1166 70.2784 93.7987 66.2578 93.7987C61.7553 93.7987 58.2798 90.4984 58.2798 85.2366C58.2798 79.668 61.9256 76.4019 66.5304 76.4019C71.3104 76.4019 74.5424 79.8725 74.5424 84.964ZM61.3366 85.1343C61.3366 88.7802 63.4346 91.5304 66.3892 91.5304C69.2757 91.5304 71.4418 88.8142 71.4418 85.0662C71.4418 82.2479 70.0302 78.6702 66.4574 78.6702C62.8845 78.6702 61.3366 81.9704 61.3366 85.1343Z" fill="#9C9C42"/>
<path d="M92.6937 76.7815C92.6256 77.9838 92.5574 79.3273 92.5574 81.3522V91.0144C92.5574 94.8306 91.803 97.1671 90.1869 98.6127C88.5709 100.127 86.2344 100.608 84.1365 100.608C82.1408 100.608 79.9406 100.127 78.602 99.2309L79.3565 96.9285C80.4566 97.6149 82.1748 98.2331 84.2387 98.2331C87.3345 98.2331 89.6028 96.617 89.6028 92.4211V90.5666H89.5347C88.6049 92.1145 86.8185 93.3509 84.2387 93.3509C80.111 93.3509 77.1563 89.8462 77.1563 85.2366C77.1563 79.5999 80.8363 76.4019 84.6525 76.4019C87.5389 76.4019 89.1209 77.9157 89.8462 79.2884H89.9143L90.0506 76.7767H92.6937V76.7815ZM89.5687 83.3479C89.5687 82.832 89.5347 82.3841 89.3984 81.9704C88.8483 80.2181 87.3686 78.7724 85.1684 78.7724C82.2819 78.7724 80.2181 81.2159 80.2181 85.0662C80.2181 88.3324 81.8682 91.0485 85.1343 91.0485C86.9889 91.0485 88.6731 89.8803 89.3302 87.9527C89.5006 87.4367 89.5687 86.8526 89.5687 86.3366V83.3479Z" fill="#9C9C42"/>
<path d="M112.636 84.964C112.636 91.1166 108.372 93.7987 104.352 93.7987C99.8491 93.7987 96.3737 90.4984 96.3737 85.2366C96.3737 79.668 100.019 76.4019 104.624 76.4019C109.404 76.4019 112.636 79.8725 112.636 84.964ZM99.4354 85.1343C99.4354 88.7802 101.533 91.5304 104.488 91.5304C107.374 91.5304 109.541 88.8142 109.541 85.0662C109.541 82.2479 108.129 78.6702 104.556 78.6702C100.983 78.6702 99.4354 81.9704 99.4354 85.1343Z" fill="#9C9C42"/>
<path d="M54.4685 67.9323V59.8618L48.457 48.9145H51.251L53.933 54.1618C54.668 55.6026 55.2327 56.7562 55.8217 58.0851H55.8801C56.4155 56.8439 57.0629 55.6026 57.7979 54.1618L60.5335 48.9145H63.3275L56.9509 59.8374V67.9371H54.4685V67.9323Z" fill="#9C9C42"/>
<path d="M75.6328 60.991C75.6328 66.0436 72.133 68.2438 68.8327 68.2438C65.1382 68.2438 62.2858 65.5325 62.2858 61.2198C62.2858 56.6491 65.2745 53.9671 69.0566 53.9671C72.9799 53.9671 75.6328 56.8146 75.6328 60.991ZM64.7975 61.1322C64.7975 64.1209 66.5206 66.3795 68.9447 66.3795C71.3152 66.3795 73.0919 64.1501 73.0919 61.0738C73.0919 58.7617 71.9334 55.8265 68.9982 55.8265C66.0631 55.8314 64.7975 58.5378 64.7975 61.1322Z" fill="#9C9C42"/>
<path d="M90.1869 64.2085C90.1869 65.6201 90.2161 66.8614 90.2989 67.9322H88.0987L87.9576 65.7029H87.8991C87.2518 66.803 85.8109 68.2438 83.382 68.2438C81.2354 68.2438 78.6702 67.0609 78.6702 62.2615V54.2738H81.1526V61.838C81.1526 64.4324 81.9412 66.1848 84.1998 66.1848C85.8645 66.1848 87.023 65.0263 87.4708 63.9262C87.612 63.5611 87.6947 63.1084 87.6947 62.6558V54.2738H90.1772V64.2085H90.1869Z" fill="#9C9C42"/>
<path d="M94.3049 58.5378C94.3049 56.9315 94.2757 55.5491 94.1929 54.2786H96.3639L96.4466 56.9607H96.5586C97.1817 55.1256 98.676 53.972 100.341 53.972C100.623 53.972 100.823 54.0012 101.047 54.0547V56.396C100.793 56.3376 100.54 56.3133 100.2 56.3133C98.4521 56.3133 97.2109 57.6373 96.8701 59.5016C96.8117 59.8423 96.7582 60.2366 96.7582 60.6601V67.942H94.3049V58.5378Z" fill="#9C9C42"/>
<path d="M118.735 69.1978C118.993 62.4757 116.681 55.8071 112.315 50.6815" stroke="#CFDE7C" stroke-width="3" stroke-miterlimit="10" stroke-linecap="round"/>
<path d="M113.561 62.0668C113.561 62.0668 116.448 62.1787 117.226 62.719C118.01 63.2594 118.2 64.3302 117.66 65.1139C117.119 65.8976 116.048 66.0874 115.265 65.5471C114.486 65.002 113.561 62.0668 113.561 62.0668Z" fill="#CFDE7C"/>
<path d="M122.328 60.4751C122.328 60.4751 119.665 61.5946 119.125 62.3734C118.585 63.1523 118.779 64.228 119.558 64.7683C120.342 65.3086 121.413 65.1139 121.953 64.3351C122.488 63.5514 122.328 60.4751 122.328 60.4751Z" fill="#CFDE7C"/>
<path d="M111.346 56.8828C111.346 56.8828 114.17 56.2743 115.06 56.6053C115.951 56.9363 116.404 57.9245 116.073 58.8152C115.742 59.706 114.754 60.1587 113.863 59.8277C112.972 59.5016 111.346 56.8828 111.346 56.8828Z" fill="#CFDE7C"/>
<path d="M119.446 53.1737C119.446 53.1737 117.144 54.9163 116.813 55.8071C116.482 56.6978 116.934 57.6859 117.825 58.0169C118.716 58.3479 119.704 57.8953 120.035 57.0045C120.366 56.1137 119.446 53.1737 119.446 53.1737Z" fill="#CFDE7C"/>
<path d="M30.442 68.1902C30.184 61.4681 32.4961 54.7995 36.8623 49.6739" stroke="#CFDE7C" stroke-width="3" stroke-miterlimit="10" stroke-linecap="round"/>
<path d="M35.6114 61.0592C35.6114 61.0592 32.7249 61.1711 31.9461 61.7114C31.1673 62.2517 30.9725 63.3226 31.5129 64.1063C32.0532 64.89 33.124 65.0798 33.9077 64.5395C34.6865 63.9992 35.6114 61.0592 35.6114 61.0592Z" fill="#CFDE7C"/>
<path d="M26.8497 59.4675C26.8497 59.4675 29.5123 60.587 30.0526 61.3658C30.5929 62.1447 30.3982 63.2204 29.6193 63.7607C28.8357 64.301 27.7648 64.1063 27.2245 63.3275C26.6842 62.5438 26.8497 59.4675 26.8497 59.4675Z" fill="#CFDE7C"/>
<path d="M37.8261 55.8752C37.8261 55.8752 35.0029 55.2668 34.1121 55.5978C33.2214 55.9288 32.7687 56.9169 33.0997 57.8076C33.4307 58.6984 34.4188 59.1511 35.3096 58.8201C36.2003 58.494 37.8261 55.8752 37.8261 55.8752Z" fill="#CFDE7C"/>
<path d="M29.7313 52.1661C29.7313 52.1661 32.0337 53.9087 32.3647 54.7995C32.6957 55.6902 32.243 56.6783 31.3522 57.0093C30.4614 57.3403 29.4733 56.8877 29.1423 55.9969C28.8113 55.1061 29.7313 52.1661 29.7313 52.1661Z" fill="#CFDE7C"/>
<path d="M53.6994 35.1636C53.972 35.1879 54.337 35.1441 54.6583 34.9883C55.1402 34.7498 55.2911 34.3555 55.111 33.9905C54.9406 33.6497 54.6534 33.5475 54.0644 33.6011C53.3684 33.6838 52.8476 33.5572 52.5944 33.0413C52.3121 32.4718 52.575 31.8195 53.2808 31.469C53.6507 31.2841 53.9671 31.2403 54.1715 31.25L54.2348 31.6978C54.0839 31.693 53.787 31.7027 53.4609 31.8633C52.9644 32.1067 52.9254 32.501 53.0471 32.7492C53.2175 33.09 53.5193 33.1484 54.118 33.0948C54.8481 33.0315 55.3106 33.1727 55.5783 33.7081C55.8557 34.2728 55.6854 34.964 54.8238 35.3875C54.4733 35.5627 54.0401 35.6454 53.7821 35.6114L53.6994 35.1636Z" fill="#9C9C42"/>
<path d="M60.8694 30.6464C61.3318 31.9704 60.7769 32.9537 59.7985 33.2944C58.786 33.6497 57.8028 33.1094 57.3939 31.9412C56.9656 30.7194 57.4474 29.6534 58.4696 29.2981C59.5162 28.9379 60.4702 29.5074 60.8694 30.6464ZM57.9196 31.7465C58.2068 32.5691 58.9077 33.1484 59.6865 32.8806C60.4702 32.6081 60.6601 31.727 60.3583 30.8509C60.0906 30.0866 59.414 29.4246 58.5913 29.7118C57.7687 29.999 57.6227 30.9044 57.9196 31.7465Z" fill="#9C9C42"/>
<path d="M66.8419 29.5853C66.7056 29.0352 66.5401 28.3684 66.4525 27.8719L66.433 27.8768C66.3892 28.3732 66.3162 28.9038 66.2237 29.4928L65.8927 31.5713L65.5033 31.6443L64.4909 29.8627C64.1939 29.337 63.9359 28.8503 63.7315 28.3976H63.7218C63.8045 28.899 63.9067 29.5755 63.9846 30.1791L64.2085 31.9169L63.7169 32.0094L63.2253 27.9546L63.8824 27.8281L64.9338 29.6291C65.1967 30.0915 65.4157 30.5004 65.5958 30.8995L65.6153 30.8947C65.6396 30.4712 65.6932 30.0039 65.7759 29.4685L66.1118 27.3949L66.7689 27.2683L67.7862 31.2208L67.2849 31.3181L66.8419 29.5853Z" fill="#9C9C42"/>
<path d="M72.2352 28.9525L70.663 29.0498L70.7506 30.515L72.5029 30.4079L72.5273 30.8509L70.2492 30.9872L70.0058 26.9227L72.1914 26.7913L72.2157 27.2294L70.551 27.3316L70.6289 28.6166L72.2011 28.5193L72.2352 28.9525Z" fill="#9C9C42"/>
<path d="M78.8503 27.0249L78.4511 31.0796L77.9303 31.0261L78.3294 26.9714L78.8503 27.0249Z" fill="#9C9C42"/>
<path d="M81.0504 31.4058L81.8682 27.4143L82.428 27.5312L83.2895 29.8092C83.4891 30.3349 83.6351 30.8022 83.7374 31.25L83.752 31.2451C83.8152 30.7048 83.9029 30.2132 84.0294 29.595L84.3701 27.9254L84.852 28.0228L84.0343 32.0142L83.5135 31.9071L82.6665 29.6242C82.4815 29.1229 82.3063 28.6118 82.1943 28.1396H82.1749C82.1019 28.6507 82.0142 29.1326 81.8779 29.7946L81.5275 31.4983L81.0504 31.4058Z" fill="#9C9C42"/>
<path d="M87.8359 28.86L89.9046 29.5512L89.7634 29.9698L88.1912 29.4441L87.7629 30.7292L89.2183 31.2159L89.082 31.6297L87.6266 31.1429L87.0425 32.8904L86.546 32.7249L87.8359 28.86Z" fill="#9C9C42"/>
<path d="M94.9036 33.9174C94.3 35.183 93.2146 35.4897 92.28 35.0419C91.3113 34.5794 90.9949 33.5037 91.5255 32.389C92.0853 31.2208 93.1708 30.8022 94.1491 31.2695C95.147 31.7465 95.4245 32.8271 94.9036 33.9174ZM92.0366 32.6227C91.6618 33.4112 91.7494 34.3166 92.4942 34.6719C93.2438 35.0273 93.9982 34.5405 94.3974 33.7033C94.7479 32.9731 94.7333 32.0239 93.9447 31.6491C93.161 31.2743 92.4211 31.8146 92.0366 32.6227Z" fill="#9C9C42"/>
<path d="M53.6994 35.1636C53.972 35.1879 54.337 35.1441 54.6583 34.9883C55.1402 34.7498 55.2911 34.3555 55.111 33.9905C54.9406 33.6497 54.6534 33.5475 54.0644 33.6011C53.3684 33.6838 52.8476 33.5572 52.5944 33.0413C52.3121 32.4718 52.575 31.8195 53.2808 31.469C53.6507 31.2841 53.9671 31.2403 54.1715 31.25L54.2348 31.6978C54.0839 31.693 53.787 31.7027 53.4609 31.8633C52.9644 32.1067 52.9254 32.501 53.0471 32.7492C53.2175 33.09 53.5193 33.1484 54.118 33.0948C54.8481 33.0315 55.3106 33.1727 55.5783 33.7081C55.8557 34.2728 55.6854 34.964 54.8238 35.3875C54.4733 35.5627 54.0401 35.6454 53.7821 35.6114L53.6994 35.1636Z" fill="#9C9C42"/>
<path d="M60.8694 30.6464C61.3318 31.9704 60.7769 32.9537 59.7985 33.2944C58.786 33.6497 57.8028 33.1094 57.3939 31.9412C56.9656 30.7194 57.4474 29.6534 58.4696 29.2981C59.5162 28.9379 60.4702 29.5074 60.8694 30.6464ZM57.9196 31.7465C58.2068 32.5691 58.9077 33.1484 59.6865 32.8806C60.4702 32.6081 60.6601 31.727 60.3583 30.8509C60.0906 30.0866 59.414 29.4246 58.5913 29.7118C57.7687 29.999 57.6227 30.9044 57.9196 31.7465Z" fill="#9C9C42"/>
<path d="M66.8419 29.5853C66.7056 29.0352 66.5401 28.3684 66.4525 27.8719L66.433 27.8768C66.3892 28.3732 66.3162 28.9038 66.2237 29.4928L65.8927 31.5713L65.5033 31.6443L64.4909 29.8627C64.1939 29.337 63.9359 28.8503 63.7315 28.3976H63.7218C63.8045 28.899 63.9067 29.5755 63.9846 30.1791L64.2085 31.9169L63.7169 32.0094L63.2253 27.9546L63.8824 27.8281L64.9338 29.6291C65.1967 30.0915 65.4157 30.5004 65.5958 30.8995L65.6153 30.8947C65.6396 30.4712 65.6932 30.0039 65.7759 29.4685L66.1118 27.3949L66.7689 27.2683L67.7862 31.2208L67.2849 31.3181L66.8419 29.5853Z" fill="#9C9C42"/>
<path d="M72.2352 28.9525L70.663 29.0498L70.7506 30.515L72.5029 30.4079L72.5273 30.8509L70.2492 30.9872L70.0058 26.9227L72.1914 26.7913L72.2157 27.2294L70.551 27.3316L70.6289 28.6166L72.2011 28.5193L72.2352 28.9525Z" fill="#9C9C42"/>
<path d="M78.8503 27.0249L78.4511 31.0796L77.9303 31.0261L78.3294 26.9714L78.8503 27.0249Z" fill="#9C9C42"/>
<path d="M81.0504 31.4058L81.8682 27.4143L82.428 27.5312L83.2895 29.8092C83.4891 30.3349 83.6351 30.8022 83.7374 31.25L83.752 31.2451C83.8152 30.7048 83.9029 30.2132 84.0294 29.595L84.3701 27.9254L84.852 28.0228L84.0343 32.0142L83.5135 31.9071L82.6665 29.6242C82.4815 29.1229 82.3063 28.6118 82.1943 28.1396H82.1749C82.1019 28.6507 82.0142 29.1326 81.8779 29.7946L81.5275 31.4983L81.0504 31.4058Z" fill="#9C9C42"/>
<path d="M87.8359 28.86L89.9046 29.5512L89.7634 29.9698L88.1912 29.4441L87.7629 30.7292L89.2183 31.2159L89.082 31.6297L87.6266 31.1429L87.0425 32.8904L86.546 32.7249L87.8359 28.86Z" fill="#9C9C42"/>
<path d="M94.9036 33.9174C94.3 35.183 93.2146 35.4897 92.28 35.0419C91.3113 34.5794 90.9949 33.5037 91.5255 32.389C92.0853 31.2208 93.1708 30.8022 94.1491 31.2695C95.147 31.7465 95.4245 32.8271 94.9036 33.9174ZM92.0366 32.6227C91.6618 33.4112 91.7494 34.3166 92.4942 34.6719C93.2438 35.0273 93.9982 34.5405 94.3974 33.7033C94.7479 32.9731 94.7333 32.0239 93.9447 31.6491C93.161 31.2743 92.4211 31.8146 92.0366 32.6227Z" fill="#9C9C42"/>
<path d="M55.2083 114.505C55.4371 113.985 55.7146 113.357 55.9482 112.909L55.9336 112.899C55.5929 113.264 55.2132 113.639 54.78 114.053L53.2516 115.494L52.8962 115.313L53.1834 113.284C53.271 112.685 53.3635 112.14 53.4755 111.658L53.4657 111.653C53.2272 112.101 52.8914 112.7 52.5847 113.225L51.6988 114.734L51.251 114.51L53.3392 111.001L53.933 111.303L53.6604 113.371C53.5826 113.897 53.5047 114.359 53.4073 114.783L53.4219 114.793C53.6994 114.471 54.0304 114.136 54.4198 113.761L55.9531 112.325L56.5518 112.627L54.9406 116.379L54.4831 116.151L55.2083 114.505Z" fill="#9C9C42"/>
<path d="M61.8283 116.672C61.3902 118.005 60.3485 118.443 59.3653 118.117C58.3479 117.781 57.8953 116.754 58.2798 115.586C58.6838 114.359 59.7109 113.805 60.7379 114.145C61.7942 114.491 62.2079 115.523 61.8283 116.672ZM58.8201 115.747C58.5475 116.574 58.7471 117.46 59.5308 117.718C60.3193 117.976 61.0057 117.397 61.2977 116.516C61.5508 115.747 61.4145 114.812 60.587 114.54C59.7644 114.272 59.0976 114.9 58.8201 115.747Z" fill="#9C9C42"/>
<path d="M64.8121 115.396C65.0847 115.391 65.4595 115.435 65.8148 115.503C66.3649 115.606 66.7007 115.776 66.9052 116.048C67.0707 116.263 67.134 116.56 67.0756 116.866C66.9733 117.392 66.5791 117.684 66.1312 117.742L66.1264 117.762C66.4136 117.927 66.545 118.249 66.5596 118.682C66.5839 119.266 66.6034 119.67 66.6569 119.84L66.1264 119.738C66.0826 119.612 66.0582 119.251 66.0436 118.731C66.029 118.156 65.8586 117.908 65.3914 117.801L64.9046 117.708L64.5736 119.441L64.0576 119.344L64.8121 115.396ZM64.9825 117.314L65.5082 117.416C66.0582 117.518 66.4622 117.285 66.5498 116.827C66.6472 116.311 66.3162 116.014 65.7759 115.902C65.5277 115.854 65.3476 115.844 65.2599 115.854L64.9825 117.314Z" fill="#9C9C42"/>
<path d="M71.6998 118.414L70.1275 118.302L70.0253 119.767L71.7777 119.894L71.7484 120.337L69.4753 120.176L69.7625 116.112L71.948 116.268L71.9188 116.706L70.2541 116.589L70.1616 117.874L71.7338 117.986L71.6998 118.414Z" fill="#9C9C42"/>
<path d="M78.0617 116.073L78.4414 120.128L77.9206 120.176L77.5409 116.122L78.0617 116.073Z" fill="#9C9C42"/>
<path d="M81.5372 119.738L80.7292 115.747L81.2889 115.635L82.9731 117.397C83.3625 117.806 83.6789 118.18 83.9515 118.55L83.9613 118.541C83.8055 118.02 83.6935 117.533 83.5718 116.91L83.2311 115.24L83.713 115.143L84.521 119.135L84.0002 119.242L82.3257 117.475C81.9607 117.085 81.6005 116.686 81.3133 116.292L81.2987 116.302C81.4301 116.798 81.5372 117.275 81.6735 117.942L82.0191 119.646L81.5372 119.738Z" fill="#9C9C42"/>
<path d="M86.288 114.408L88.3567 113.712L88.4979 114.131L86.9256 114.661L87.3588 115.946L88.8142 115.455L88.9554 115.868L87.5 116.36L88.089 118.107L87.5925 118.273L86.288 114.408Z" fill="#9C9C42"/>
<path d="M94.6797 113.065C95.293 114.325 94.855 115.367 93.9253 115.82C92.9615 116.287 91.9198 115.868 91.3795 114.759C90.8149 113.595 91.1653 112.485 92.1388 112.008C93.1318 111.522 94.1492 111.974 94.6797 113.065ZM91.876 114.496C92.2557 115.279 93.0199 115.776 93.7597 115.416C94.5045 115.051 94.5921 114.155 94.1881 113.328C93.8328 112.597 93.0832 112.023 92.2995 112.403C91.5255 112.782 91.4866 113.693 91.876 114.496Z" fill="#9C9C42"/>
<path d="M55.2083 114.505C55.4371 113.985 55.7146 113.357 55.9482 112.909L55.9336 112.899C55.5929 113.264 55.2132 113.639 54.78 114.053L53.2516 115.494L52.8962 115.313L53.1834 113.284C53.271 112.685 53.3635 112.14 53.4755 111.658L53.4657 111.653C53.2272 112.101 52.8914 112.7 52.5847 113.225L51.6988 114.734L51.251 114.51L53.3392 111.001L53.933 111.303L53.6604 113.371C53.5826 113.897 53.5047 114.359 53.4073 114.783L53.4219 114.793C53.6994 114.471 54.0304 114.136 54.4198 113.761L55.9531 112.325L56.5518 112.627L54.9406 116.379L54.4831 116.151L55.2083 114.505Z" fill="#9C9C42"/>
<path d="M61.8283 116.672C61.3902 118.005 60.3485 118.443 59.3653 118.117C58.3479 117.781 57.8953 116.754 58.2798 115.586C58.6838 114.359 59.7109 113.805 60.7379 114.145C61.7942 114.491 62.2079 115.523 61.8283 116.672ZM58.8201 115.747C58.5475 116.574 58.7471 117.46 59.5308 117.718C60.3193 117.976 61.0057 117.397 61.2977 116.516C61.5508 115.747 61.4145 114.812 60.587 114.54C59.7644 114.272 59.0976 114.9 58.8201 115.747Z" fill="#9C9C42"/>
<path d="M64.8121 115.396C65.0847 115.391 65.4595 115.435 65.8148 115.503C66.3649 115.606 66.7007 115.776 66.9052 116.048C67.0707 116.263 67.134 116.56 67.0756 116.866C66.9733 117.392 66.5791 117.684 66.1312 117.742L66.1264 117.762C66.4136 117.927 66.545 118.249 66.5596 118.682C66.5839 119.266 66.6034 119.67 66.6569 119.84L66.1264 119.738C66.0826 119.612 66.0582 119.251 66.0436 118.731C66.029 118.156 65.8586 117.908 65.3914 117.801L64.9046 117.708L64.5736 119.441L64.0576 119.344L64.8121 115.396ZM64.9825 117.314L65.5082 117.416C66.0582 117.518 66.4622 117.285 66.5498 116.827C66.6472 116.311 66.3162 116.014 65.7759 115.902C65.5277 115.854 65.3476 115.844 65.2599 115.854L64.9825 117.314Z" fill="#9C9C42"/>
<path d="M71.6998 118.414L70.1275 118.302L70.0253 119.767L71.7777 119.894L71.7484 120.337L69.4753 120.176L69.7625 116.112L71.948 116.268L71.9188 116.706L70.2541 116.589L70.1616 117.874L71.7338 117.986L71.6998 118.414Z" fill="#9C9C42"/>
<path d="M78.0617 116.073L78.4414 120.128L77.9206 120.176L77.5409 116.122L78.0617 116.073Z" fill="#9C9C42"/>
<path d="M81.5372 119.738L80.7292 115.747L81.2889 115.635L82.9731 117.397C83.3625 117.806 83.6789 118.18 83.9515 118.55L83.9613 118.541C83.8055 118.02 83.6935 117.533 83.5718 116.91L83.2311 115.24L83.713 115.143L84.521 119.135L84.0002 119.242L82.3257 117.475C81.9607 117.085 81.6005 116.686 81.3133 116.292L81.2987 116.302C81.4301 116.798 81.5372 117.275 81.6735 117.942L82.0191 119.646L81.5372 119.738Z" fill="#9C9C42"/>
<path d="M86.288 114.408L88.3567 113.712L88.4979 114.131L86.9256 114.661L87.3588 115.946L88.8142 115.455L88.9554 115.868L87.5 116.36L88.089 118.107L87.5925 118.273L86.288 114.408Z" fill="#9C9C42"/>
<path d="M94.6797 113.065C95.293 114.325 94.855 115.367 93.9253 115.82C92.9615 116.287 91.9198 115.868 91.3795 114.759C90.8149 113.595 91.1653 112.485 92.1388 112.008C93.1318 111.522 94.1492 111.974 94.6797 113.065ZM91.876 114.496C92.2557 115.279 93.0199 115.776 93.7597 115.416C94.5045 115.051 94.5921 114.155 94.1881 113.328C93.8328 112.597 93.0832 112.023 92.2995 112.403C91.5255 112.782 91.4866 113.693 91.876 114.496Z" fill="#9C9C42"/>
<path d="M68.8814 101.037C68.8814 101.037 72.3472 101.801 73.1747 102.629C74.0021 103.456 74.0021 104.795 73.1747 105.622C72.3472 106.45 71.0086 106.45 70.1811 105.622C69.3584 104.795 68.8814 101.037 68.8814 101.037Z" fill="#BD6363"/>
<path d="M78.9476 101.037C78.9476 101.037 75.477 101.801 74.6544 102.629C73.8269 103.456 73.8269 104.795 74.6544 105.622C75.4819 106.45 76.8205 106.45 77.648 105.622C78.4706 104.795 78.9476 101.037 78.9476 101.037Z" fill="#BD6363"/>
<path d="M73.9875 107.764C73.7101 107.764 73.5008 107.54 73.5008 107.258V101.212C73.5008 100.935 73.7101 100.706 73.9875 100.706C74.265 100.706 74.4743 100.93 74.4743 101.212V107.258C74.4743 107.535 74.265 107.764 73.9875 107.764Z" fill="#BD6363"/>
</svg>
